#!OML:ASF F:\VICON\USERDATA\INSTALL\rory3\rory3.ASF
:FULLY-SPECIFIED
:DEGREES
739
root -2.48931 20.7823 -0.11741 -2.04593 -54.4236 4.05251
lowerback 7.505 1.86777 -3.02432
upperback -8.00494 2.19767 1.41794
thorax -13.1471 1.38261 2.84937
lowerneck -25.8738 -8.51594 -14.9763
upperneck -6.25838 -7.505 10.991
head 2.95104 -3.06911 5.11824
rclavicle -4.78077e-014 -1.19271e-014
rhumerus 95.6171 -18.8852 -40.9754
rradius 28.7526
rwrist 5.62777
rhand -36.0744 -7.00651
rfingers 7.12502
rthumb -9.18156 -36.7866
lclavicle -4.78077e-014 -1.19271e-014
lhumerus 106.109 14.977 61.3294
lradius 19.0051
lwrist -17.3128
lhand -20.3957 24.6922
lfingers 7.12502
lthumb 5.95775 54.5885
rfemur -12.3776 2.17552 7.85092
rtibia 34.6388
rfoot -2.75798 -21.1169
rtoes 22.9052
lfemur -10.2943 -7.11328 -15.115
ltibia 29.5127
lfoot 9.50624 -1.22303
ltoes -11.927
740
root -2.50506 20.7856 -0.0915536 -2.21829 -54.3606 4.14485
lowerback 7.39937 1.79876 -3.15772
upperback -7.99143 2.08091 1.35097
thorax -13.0591 1.33428 2.87526
lowerneck -25.7806 -8.50618 -14.9149
upperneck -6.19499 -7.53027 11.1275
head 2.97047 -3.07816 5.15013
rclavicle 1.19768e-013 3.81667e-014
rhumerus 95.6428 -19.2001 -41.0605
rradius 29.0687
rwrist 5.40669
rhand -35.7618 -7.06487
rfingers 7.12502
rthumb -8.87997 -36.858
lclavicle 1.19768e-013 3.81667e-014
lhumerus 105.351 15.718 59.4761
lradius 20.1387
lwrist -14.6792
lhand -20.3047 24.9296
lfingers 7.12502
lthumb 6.04567 54.8234
rfemur -12.0164 2.33267 7.78117
rtibia 34.2373
rfoot -2.52881 -21.0067
rtoes 21.9885
lfemur -10.2096 -7.87884 -14.8502
ltibia 29.6391
lfoot 9.597 -0.730154
ltoes -10.174
741
root -2.52262 20.779 -0.0677452 -1.95608 -54.1834 3.7131
lowerback 7.2502 1.67325 -3.0359
upperback -7.99005 1.93259 1.37399
thorax -12.9466 1.25188 2.86297
lowerneck -25.3327 -8.52866 -15.0343
upperneck -6.3898 -7.59399 11.3789
head 2.88207 -3.10652 5.25194
rclavicle 3.77691e-014 2.18663e-014
rhumerus 95.9189 -19.2337 -41.8902
rradius 29.2392
rwrist 5.41178
rhand -35.2055 -5.70588
rfingers 7.12502
rthumb -8.34314 -35.5211
lclavicle 3.77691e-014 2.18663e-014
lhumerus 105.303 15.6627 59.2299
lradius 20.4975
lwrist -14.6943
lhand -20.2201 24.6559
lfingers 7.12502
lthumb 6.12729 54.5473
rfemur -11.6101 2.42846 8.08991
rtibia 33.8082
rfoot -2.19571 -20.8778
rtoes 21.2126
lfemur -10.2234 -8.57427 -14.1907
ltibia 29.7555
lfoot 9.70062 -0.309791
ltoes -8.11974
742
root -2.54203 20.752 -0.0495362 -1.95098 -54.027 3.55168
lowerback 7.16187 1.58468 -3.11194
upperback -7.97752 1.80045 1.33654
thorax -12.8678 1.19258 2.89078
lowerneck -25.1745 -8.54459 -15.0787
upperneck -6.33532 -7.63276 11.5571
head 2.89776 -3.12012 5.31336
rclavicle 1.23246e-014 -7.95139e-016
rhumerus 95.3546 -19.8544 -40.8877
rradius 29.6636
rwrist 4.01194
rhand -35.4513 -5.03226
rfingers 7.12502
rthumb -8.5803 -34.8379
lclavicle 1.23246e-014 -7.95139e-016
lhumerus 105.817 15.2377 59.7772
lradius 20.0403
lwrist -16.3375
lhand -20.6507 23.9395
lfingers 7.12502
lthumb 5.71162 53.8425
rfemur -11.1717 2.78234 8.24449
rtibia 33.3809
rfoot -2.46052 -20.8374
rtoes 21.9881
lfemur -10.2187 -8.51272 -13.7227
ltibia 29.8628
lfoot 9.89972 -0.42775
ltoes -6.92672
743
root -2.56244 20.7103 -0.0333777 -2.03702 -53.9306 3.56152
lowerback 7.05094 1.50917 -3.27466
upperback -7.99928 1.67033 1.26198
thorax -12.8176 1.14055 2.92619
lowerneck -25.2065 -8.50216 -14.9283
upperneck -6.0433 -7.62245 11.5423
head 2.98707 -3.11673 5.28099
rclavicle -4.83047e-014 -2.38542e-014
rhumerus 95.5662 -19.7947 -41.4508
rradius 29.3679
rwrist 4.84369
rhand -35.9228 -5.09989
rfingers 7.12502
rthumb -9.03536 -34.8864
lclavicle -4.83047e-014 -2.38542e-014
lhumerus 105.832 15.2246 59.4986
lradius 19.867
lwrist -17.3697
lhand -21.4782 23.1985
lfingers 7.12502
lthumb 4.91266 53.1215
rfemur -10.8232 3.35365 8.26594
rtibia 32.9693
rfoot -2.94608 -20.9144
rtoes 23.3281
lfemur -10.2271 -8.13472 -13.4022
ltibia 29.9711
lfoot 9.98064 -0.714012
ltoes -7.91342
744
root -2.581 20.6558 -0.0151688 -1.98391 -53.7594 3.43511
lowerback 6.9054 1.40241 -3.36517
upperback -8.01327 1.51263 1.22235
thorax -12.7322 1.06996 2.96445
lowerneck -25.2033 -8.39578 -14.6062
upperneck -5.86772 -7.57173 11.3526
head 3.01427 -3.10573 5.17213
rclavicle -7.76254e-014 -2.0276e-014
rhumerus 95.4234 -20.0595 -41.3424
rradius 29.3133
rwrist 5.21361
rhand -36.0774 -4.90869
rfingers 7.12502
rthumb -9.18452 -34.6887
lclavicle -7.76254e-014 -2.0276e-014
lhumerus 105.601 15.4331 58.8104
lradius 19.9173
lwrist -18.0178
lhand -21.9921 22.3891
lfingers 7.12502
lthumb 4.4164 52.323
rfemur -10.5098 3.88223 8.37126
rtibia 32.5921
rfoot -2.92691 -20.9956
rtoes 22.9625
lfemur -10.2618 -8.07806 -12.9522
ltibia 30.0611
lfoot 9.85717 -0.741348
ltoes -9.08299
745
root -2.59771 20.5907 0.00352739 -1.90449 -53.5039 3.13782
lowerback 6.88947 1.27219 -3.39008
upperback -7.98288 1.33734 1.25082
thorax -12.6736 0.989291 3.04157
lowerneck -25.1432 -8.34604 -14.5447
upperneck -5.76301 -7.53531 11.3437
head 3.03309 -3.09054 5.16325
rclavicle 5.79457e-014 1.39149e-014
rhumerus 95.6068 -20.1037 -41.7595
rradius 29.0914
rwrist 5.80077
rhand -35.9378 -4.108
rfingers 7.12502
rthumb -9.04977 -33.8939
lclavicle 5.79457e-014 1.39149e-014
lhumerus 105.29 15.742 58.1289
lradius 19.9384
lwrist -18.682
lhand -21.7318 21.9728
lfingers 7.12502
lthumb 4.66777 51.9014
rfemur -10.0816 4.22138 8.61264
rtibia 32.2394
rfoot -2.31719 -20.9947
rtoes 21.3809
lfemur -10.1681 -8.34399 -12.3757
ltibia 30.1262
lfoot 9.66241 -0.28859
ltoes -9.0526
746
root -2.61356 20.5223 0.0217201 -1.93461 -53.3229 3.08225
lowerback 6.76212 1.17653 -3.52005
upperback -7.9528 1.19327 1.22992
thorax -12.5511 0.92875 3.11873
lowerneck -25.0185 -8.30919 -14.6813
upperneck -5.76538 -7.47477 11.5281
head 3.02575 -3.05322 5.25395
rclavicle 1.30105e-013 5.96354e-015
rhumerus 95.5898 -20.1848 -41.7508
rradius 28.9721
rwrist 5.72645
rhand -36.1634 -3.92141
rfingers 7.12502
rthumb -9.26744 -33.6977
lclavicle 1.30105e-013 5.96354e-015
lhumerus 104.897 16.0604 57.4535
lradius 20.0873
lwrist -18.8718
lhand -20.19 21.545
lfingers 7.12502
lthumb 6.15638 51.4355
rfemur -9.75454 4.67786 8.6852
rtibia 31.873
rfoot -1.58967 -21.0005
rtoes 20.6751
lfemur -10.1365 -8.61066 -11.9332
ltibia 30.2115
lfoot 9.34366 0.360843
ltoes -8.92468
747
root -2.62894 20.4444 0.038556 -2.1625 -53.2363 3.41679
lowerback 6.54467 1.14496 -3.88653
upperback -7.8944 1.09757 1.08205
thorax -12.349 0.903128 3.18147
lowerneck -25.1693 -8.30177 -14.5418
upperneck -5.77551 -7.48647 11.5903
head 3.04383 -3.05455 5.24893
rclavicle -6.42074e-014 -1.70955e-014
rhumerus 95.4628 -20.6279 -41.4131
rradius 28.8538
rwrist 4.50231
rhand -36.3612 -2.96823
rfingers 7.12502
rthumb -9.45834 -32.736
lclavicle -6.42074e-014 -1.70955e-014
lhumerus 104.686 16.4254 56.6579
lradius 20.3172
lwrist -18.7839
lhand -17.6186 21.5207
lfingers 7.12502
lthumb 8.6384 51.324
rfemur -9.59613 5.17797 8.47
rtibia 31.4873
rfoot -0.53695 -20.9428
rtoes 20.0591
lfemur -10.2249 -8.75629 -11.7098
ltibia 30.3398
lfoot 8.93243 0.990807
ltoes -8.14676
748
root -2.64292 20.3502 0.0539834 -2.08518 -53.1304 3.24135
lowerback 6.47437 1.10277 -3.9326
upperback -7.82644 1.03079 0.997231
thorax -12.2197 0.867202 3.12647
lowerneck -25.2328 -8.29592 -14.2625
upperneck -5.82978 -7.54289 11.498
head 3.02803 -3.08955 5.16781
rclavicle 5.24792e-014 1.86858e-014
rhumerus 95.4743 -21.068 -41.4526
rradius 28.5873
rwrist 3.78324
rhand -36.0626 -1.83215
rfingers 7.12502
rthumb -9.17024 -31.6128
lclavicle 5.24792e-014 1.86858e-014
lhumerus 104.52 16.8144 55.7855
lradius 20.5042
lwrist -18.3116
lhand -15.1077 21.8373
lfingers 7.12502
lthumb 11.0609 51.5258
rfemur -9.3208 5.73153 8.62075
rtibia 31.1197
rfoot 0.603752 -20.8186
rtoes 19.8923
lfemur -10.2586 -8.80307 -11.1403
ltibia 30.4929
lfoot 8.64422 1.22149
ltoes -8.40698
749
root -2.65549 20.2493 0.0695387 -1.7843 -52.9831 2.7946
lowerback 6.37577 1.05566 -3.78777
upperback -7.75523 0.989406 0.982614
thorax -12.0671 0.829977 3.03653
lowerneck -25.096 -8.39881 -14.2028
upperneck -5.9418 -7.70742 11.5011
head 2.99348 -3.17459 5.14247
rclavicle 6.4605e-015 1.59028e-015
rhumerus 95.7247 -21.4168 -41.959
rradius 28.174
rwrist 4.73955
rhand -34.7393 8.10399
rfingers 7.12502
rthumb -7.89318 -21.7287
lclavicle 6.4605e-015 1.59028e-015
lhumerus 104.326 17.238 54.892
lradius 20.6659
lwrist -16.989
lhand -13.844 21.9916
lfingers 7.12502
lthumb 12.2795 51.6111
rfemur -9.06728 6.24116 8.97289
rtibia 30.8181
rfoot 2.06629 -20.648
rtoes 19.5348
lfemur -10.3448 -8.8723 -10.3807
ltibia 30.6397
lfoot 8.37362 1.51779
ltoes -9.44346
750
root -2.6646 20.1411 0.0784437 -1.57436 -52.8134 2.48975
lowerback 6.34373 0.989373 -3.80619
upperback -7.67112 0.899377 0.958867
thorax -11.9423 0.784105 3.03614
lowerneck -25.0595 -8.51766 -14.212
upperneck -6.00774 -7.86984 11.6735
head 2.99957 -3.24728 5.18109
rclavicle -3.59303e-014 5.76476e-015
rhumerus 96.2113 -21.6233 -43.0578
rradius 27.812
rwrist 6.08823
rhand -34.4596 -0.115472
rfingers 7.12502
rthumb -7.62321 -29.9581
lclavicle -3.59303e-014 5.76476e-015
lhumerus 104.076 17.7174 54.0188
lradius 20.8803
lwrist -15.8215
lhand -13.8098 21.5791
lfingers 7.12502
lthumb 12.3124 51.1966
rfemur -8.88097 6.86006 9.27055
rtibia 30.5735
rfoot 3.71247 -20.3351
rtoes 18.6812
lfemur -10.487 -9.1498 -9.69739
ltibia 30.8048
lfoot 8.12596 2.23312
ltoes -9.41905
751
root -2.67191 20.0219 0.0823862 -1.73743 -52.6147 2.49591
lowerback 6.51381 0.91426 -4.02782
upperback -7.57787 0.759699 0.874356
thorax -11.932 0.731328 3.09115
lowerneck -25.0096 -8.58521 -14.2951
upperneck -5.98152 -7.95451 11.9444
head 3.0332 -3.27611 5.27164
rclavicle 6.5748e-014 2.28602e-014
rhumerus 96.1641 -22.0704 -43.3823
rradius 27.8515
rwrist 6.0623
rhand -34.263 0.510911
rfingers 7.12502
rthumb -7.43341 -29.3385
lclavicle 6.5748e-014 2.28602e-014
lhumerus 104.061 17.9513 53.6329
lradius 20.9116
lwrist -15.5458
lhand -13.6273 21.5701
lfingers 7.12502
lthumb 12.4884 51.1769
rfemur -8.58903 7.44371 9.36469
rtibia 30.3712
rfoot 5.40891 -19.6342
rtoes 17.8518
lfemur -10.5158 -9.45799 -9.23601
ltibia 31.0014
lfoot 7.89219 2.90085
ltoes -9.71004
752
root -2.6818 19.8908 0.0912394 -1.95667 -52.3927 2.55158
lowerback 6.61375 0.830013 -4.16569
upperback -7.47513 0.611426 0.704161
thorax -11.8622 0.660674 3.00758
lowerneck -24.9376 -8.60775 -14.2895
upperneck -5.89668 -8.01361 12.2819
head 3.08216 -3.29096 5.37236
rclavicle 3.926e-015 5.96354e-016
rhumerus 95.7577 -22.7966 -43.0306
rradius 27.9228
rwrist 5.02951
rhand -36.4801 0.454908
rfingers 7.12502
rthumb -9.57303 -29.3076
lclavicle 3.926e-015 5.96354e-016
lhumerus 104.271 18.0256 53.3878
lradius 20.7713
lwrist -15.5564
lhand -12.0499 22.9037
lfingers 7.12502
lthumb 14.0089 52.4116
rfemur -8.25612 7.81226 9.39193
rtibia 30.2181
rfoot 7.39274 -18.9485
rtoes 17.5466
lfemur -10.5633 -9.56312 -8.80578
ltibia 31.2716
lfoot 7.62866 3.22063
ltoes -10.0023
